<svg width="136" height="40" viewBox="0 0 136 40" fill="none" xmlns="http://www.w3.org/2000/svg">
<path d="M3.16204 28.5213C2.64325 28.7725 2.00838 28.5724 1.77379 28.0613C0.503052 25.2922 -0.100669 22.2776 0.0139972 19.2439C0.141422 15.8726 1.15187 12.5868 2.95158 9.69159C4.75129 6.7964 7.28197 4.38545 10.3087 2.68251C13.0324 1.15013 15.7352 0.235749 18.872 0.00288298C19.451 -0.040115 20.0746 0.403403 20.09 0.962006V1.43483C20.1054 1.99348 19.7844 2.36206 19.2057 2.40892C16.4897 2.62861 13.9301 3.42923 11.5697 4.75725C8.90611 6.25578 6.6791 8.37743 5.09538 10.9252C3.51163 13.473 2.62244 16.3645 2.5103 19.3312C2.41093 21.9603 2.92467 24.5731 4.00835 26.9792C4.23927 27.492 4.03338 28.0993 3.51459 28.3505L3.16204 28.5213Z" fill="#4492EC"/>
<path d="M38.4709 28.5213C38.9896 28.7725 39.6245 28.5724 39.8591 28.0613C41.1299 25.2922 41.7336 22.2776 41.6189 19.2439C41.4915 15.8726 40.481 12.5868 38.6813 9.69159C36.8816 6.7964 34.3509 4.38545 31.3242 2.68251C28.6005 1.15013 25.5545 0.235749 22.4177 0.00288298C21.8386 -0.040115 21.3551 0.403403 21.3397 0.962006L21.3292 1.34164C21.3139 1.90024 21.7726 2.36206 22.3513 2.40892C25.0673 2.62861 27.7028 3.42923 30.0633 4.75725C32.7268 6.25578 34.9538 8.37743 36.5375 10.9252C38.1213 13.473 39.0105 16.3645 39.1226 19.3312C39.222 21.9603 38.7082 24.5731 37.6245 26.9792C37.3936 27.492 37.5995 28.0993 38.1183 28.3505L38.4709 28.5213Z" fill="#3CD583"/>
<path d="M3.75507 29.5721C3.25371 29.8542 3.08275 30.4755 3.4009 30.943C5.19397 33.5779 7.61073 35.773 10.4586 37.3448C13.6111 39.0847 17.1821 40.0001 20.8165 40.0001C24.4508 40.0001 28.0218 39.0845 31.1742 37.3445C34.0221 35.7727 36.4388 33.5775 38.2318 30.9426C38.5499 30.475 38.3789 29.8537 37.8776 29.5716L37.5369 29.3799C37.0355 29.0978 36.3939 29.262 36.0724 29.7275C34.5019 32.0012 32.4008 33.8968 29.9313 35.2598C27.1571 36.791 24.0146 37.5967 20.8164 37.5967C17.6182 37.5967 14.4757 36.7911 11.7016 35.2601C9.23196 33.8971 7.13087 32.0015 5.56026 29.7279C5.23875 29.2625 4.59713 29.0982 4.09577 29.3804L3.75507 29.5721Z" fill="#4492EC"/>
<path d="M15.1039 9.52165C14.7047 9.18084 14.6178 8.59801 14.9 8.1555C15.2437 7.61662 15.9845 7.50603 16.4706 7.9211L20.7173 11.5475L25.138 7.85457C25.6248 7.44791 26.3581 7.56141 26.6992 8.09621C26.9836 8.54222 26.8927 9.13001 26.4867 9.46913L20.7017 14.3018L15.1039 9.52165Z" fill="url(#paint0_linear_2010_782)"/>
<path d="M6.75076 22.6333C6.34701 22.2937 6.25737 21.7075 6.54106 21.2626C6.88298 20.7265 7.61881 20.6139 8.10538 21.0234L20.7111 31.6297L33.4652 20.9165C33.9519 20.5077 34.6871 20.6205 35.0289 21.1563C35.3127 21.6014 35.2228 22.188 34.8185 22.5276L20.71 34.3786L6.75076 22.6333Z" fill="url(#paint1_linear_2010_782)"/>
<path d="M9.50952 18.3132C9.1035 17.974 9.01243 17.3862 9.29691 16.9402C9.63799 16.4054 10.3712 16.2918 10.8581 16.6984L20.7101 24.9265L30.7059 16.5842C31.1928 16.1779 31.9257 16.2916 32.2667 16.8262C32.5512 17.2723 32.4601 17.8604 32.0538 18.1994L20.7096 27.667L9.50952 18.3132Z" fill="url(#paint2_linear_2010_782)"/>
<path d="M12.3159 13.99C11.8925 13.6338 11.7985 13.0191 12.096 12.5525C12.4336 12.0232 13.145 11.881 13.646 12.2593C16.1052 14.1165 18.3757 16.3394 20.7132 18.3065L27.9529 12.2667C28.4398 11.8605 29.1727 11.9743 29.5136 12.5088C29.7982 12.955 29.707 13.5431 29.3006 13.8821L20.7071 21.0513L12.3159 13.99Z" fill="url(#paint3_linear_2010_782)"/>
<path d="M64.3185 18.451C63.7553 18.4755 63.1555 18.4878 62.5188 18.4878C61.882 18.4878 61.2822 18.4755 60.719 18.451C60.572 18.2306 60.4371 18.0102 60.3149 17.7898C60.2165 17.5694 60.0944 17.3613 59.9473 17.1653C59.4819 16.5531 58.8943 16.0388 58.1841 15.6225C57.4981 15.2061 56.6778 14.9613 55.7227 14.8877C55.4778 14.8632 55.2329 14.8632 54.988 14.8877C53.4696 15.0102 52.2086 15.5857 51.2045 16.6143C50.2004 17.6184 49.6372 18.8918 49.5147 20.4347C49.4657 21.3653 49.6249 22.2102 49.9922 22.9694C50.3841 23.7041 50.8249 24.3163 51.3147 24.8061C51.78 25.2715 52.3433 25.6633 53.0047 25.9816C53.6902 26.3 54.4618 26.4714 55.3186 26.4959C56.0045 26.4959 56.6413 26.3857 57.2289 26.1653C57.8413 25.9204 58.3676 25.6265 58.8087 25.2837C59.2741 24.9408 59.6533 24.549 59.9473 24.1082C60.2657 23.6674 60.5471 23.1776 60.7925 22.6388C61.3558 22.5898 61.9555 22.5653 62.5923 22.5653C63.229 22.5653 63.8288 22.5898 64.3921 22.6388C64.1472 23.7408 63.7923 24.6714 63.3269 25.4306C62.8615 26.1898 62.2739 26.8878 61.5636 27.5245C60.7311 28.2592 59.7517 28.8714 58.6251 29.3612C57.4981 29.851 56.1024 30.0347 54.4369 29.9123C53.2861 29.8388 52.2331 29.5572 51.278 29.0674C50.3228 28.553 49.4902 27.9653 48.78 27.3041C48.3637 26.9122 47.9718 26.4592 47.6045 25.9449C47.2371 25.4062 46.9188 24.8184 46.6494 24.1816C46.4045 23.5204 46.2208 22.8102 46.0984 22.051C46.0004 21.2918 46.0004 20.4714 46.0984 19.5898C46.2208 18.4143 46.5147 17.3857 46.98 16.5041C47.4698 15.598 48.0331 14.8265 48.6698 14.1898C49.2575 13.5775 49.9065 13.0633 50.6167 12.6469C51.3514 12.2306 52.1963 11.9 53.1512 11.6551C53.568 11.5572 54.0821 11.4837 54.6945 11.4347C55.3064 11.3857 55.8945 11.3857 56.4578 11.4347C57.5108 11.5327 58.466 11.802 59.3227 12.2429C60.1801 12.6837 60.9268 13.1857 61.5636 13.749C62.2496 14.3857 62.825 15.0837 63.2904 15.8428C63.7553 16.602 64.0985 17.4714 64.3185 18.451Z" fill="#4492EC"/>
<path d="M74.2657 11.655C75.0982 11.5571 75.8942 11.5571 76.6536 11.655C77.4126 11.753 78.1107 11.9244 78.7475 12.1693C79.3842 12.4142 79.9718 12.7203 80.5107 13.0876C81.0497 13.455 81.5267 13.8468 81.9435 14.2632C82.7759 15.0958 83.4619 16.1366 84.0003 17.3856C84.5636 18.6101 84.7598 20.0918 84.5884 21.8305C84.4657 22.9571 84.1595 23.9734 83.6698 24.8795C83.18 25.7856 82.6046 26.5693 81.9435 27.2305C81.2819 27.9162 80.4986 28.504 79.5921 28.9938C78.6861 29.4591 77.6574 29.753 76.5066 29.8754C75.6493 29.9733 74.8533 29.9733 74.1187 29.8754C73.3841 29.753 72.6987 29.5693 72.0619 29.3244C71.4251 29.055 70.8497 28.7489 70.3351 28.406C69.821 28.0386 69.3556 27.6469 68.9394 27.2305C68.5475 26.8387 68.1678 26.3856 67.8007 25.8713C67.4575 25.357 67.1512 24.7938 66.882 24.1815C66.6372 23.5448 66.4537 22.8591 66.331 22.1244C66.2331 21.3652 66.2331 20.5448 66.331 19.6631C66.4537 18.4877 66.7472 17.4713 67.2126 16.6142C67.7023 15.7326 68.2656 14.9734 68.9024 14.3366C69.417 13.8224 69.9681 13.3815 70.5556 13.0142C71.1432 12.6223 71.817 12.2917 72.576 12.0224C72.8208 11.9488 73.0779 11.8877 73.3476 11.8387C73.6168 11.7652 73.923 11.704 74.2657 11.655ZM71.6578 16.504C71.2411 16.8713 70.874 17.2999 70.5556 17.7897C70.2373 18.2795 70.0046 18.855 69.8575 19.5162C69.8089 19.7611 69.7597 20.006 69.7105 20.2509C69.6862 20.4958 69.6862 20.7407 69.7105 20.9856C69.8089 22.3815 70.2738 23.557 71.1067 24.5121C71.9392 25.4672 72.98 26.0795 74.2292 26.3489C74.4493 26.3979 74.682 26.4346 74.9268 26.4591C75.1717 26.4836 75.4293 26.4958 75.6985 26.4958C76.4331 26.4468 77.119 26.2754 77.7558 25.9815C78.3921 25.6877 78.9553 25.308 79.4456 24.8427C79.9353 24.3529 80.3272 23.7775 80.6208 23.1162C80.9391 22.455 81.1227 21.7325 81.1718 20.9489V20.508C81.1227 19.5775 80.9026 18.7815 80.5107 18.1203C80.1188 17.4591 79.6778 16.9081 79.188 16.4672C78.6983 16.0264 78.0864 15.6591 77.3512 15.3652C76.6415 15.0713 75.882 14.9734 75.0739 15.0713C74.2901 15.1693 73.629 15.3284 73.09 15.5489C72.576 15.7693 72.0984 16.0877 71.6578 16.504Z" fill="#9C9C9C"/>
<path d="M104.383 19.0758C103.82 19.1247 103.232 19.1492 102.62 19.1492C102.032 19.1247 101.445 19.1125 100.857 19.1125C100.416 17.9125 99.7671 16.9329 98.9097 16.1738C98.0773 15.4145 96.9386 14.986 95.4937 14.888C94.7834 14.839 94.0731 14.9492 93.3629 15.2186C92.6774 15.4635 92.0893 15.7941 91.5996 16.2105C91.012 16.7247 90.5466 17.3248 90.2039 18.0104C89.8606 18.6962 89.6284 19.5166 89.5057 20.4717C89.4322 21.2064 89.4079 21.9778 89.4322 22.786C89.4814 23.5697 89.5057 24.3533 89.5057 25.137V29.8391C88.9668 29.888 88.4035 29.9125 87.816 29.9125C87.2284 29.888 86.6529 29.8758 86.0897 29.8758V22.0145C86.0897 21.5737 86.077 21.1329 86.0527 20.6921C86.0283 20.2513 86.0405 19.835 86.0897 19.4431C86.1383 18.8064 86.2854 18.1941 86.5303 17.6064C86.7751 16.9941 87.0322 16.4554 87.3019 15.9901C87.8651 15.0105 88.5749 14.1655 89.4322 13.4554C90.3139 12.7452 91.3425 12.1941 92.5182 11.8023C92.9831 11.6554 93.5591 11.5452 94.2445 11.4717C94.9305 11.3982 95.628 11.386 96.3383 11.4349C97.4405 11.5574 98.4443 11.8513 99.3508 12.3166C100.281 12.7819 101.065 13.3329 101.702 13.9696C102.388 14.6309 102.951 15.3778 103.391 16.2105C103.857 17.0431 104.187 17.9982 104.383 19.0758ZM124.693 30.0227H121.35C121.301 29.7533 121.289 29.4472 121.313 29.1043C121.338 28.737 121.326 28.4186 121.277 28.1492C120.934 28.3452 120.591 28.5533 120.248 28.7737C119.93 28.9696 119.587 29.1533 119.219 29.3248C118.632 29.5941 117.946 29.8023 117.162 29.9492C116.403 30.0717 115.571 30.0962 114.665 30.0227C113.513 29.9247 112.472 29.6431 111.542 29.1778C110.636 28.688 109.827 28.1003 109.118 27.4146C108.407 26.7288 107.807 25.9329 107.317 25.0268C106.852 24.1206 106.558 23.1044 106.436 21.9778C106.338 21.0962 106.338 20.288 106.436 19.5533C106.558 18.7941 106.742 18.1084 106.987 17.4962C107.256 16.8594 107.562 16.2839 107.905 15.7696C108.248 15.2554 108.615 14.8023 109.007 14.4105C109.57 13.8472 110.219 13.3451 110.954 12.9043C111.713 12.439 112.546 12.1084 113.452 11.9125C113.844 11.8146 114.346 11.7533 114.958 11.7288C115.595 11.6799 116.183 11.6799 116.721 11.7288C117.848 11.8513 118.852 12.1574 119.734 12.6472C120.64 13.137 121.424 13.7248 122.085 14.4105C122.746 15.0717 123.321 15.8676 123.812 16.7982C124.301 17.7043 124.607 18.7084 124.73 19.8105C124.828 20.6431 124.852 21.5003 124.803 22.3819C124.754 23.2391 124.73 24.0962 124.73 24.9533C124.73 25.8105 124.73 26.6554 124.73 27.488C124.754 28.3207 124.742 29.1656 124.693 30.0227ZM111.726 16.6513C111.431 16.9207 111.15 17.2513 110.88 17.6431C110.611 18.0104 110.391 18.4268 110.219 18.8921C110.048 19.3574 109.926 19.8595 109.852 20.3982C109.803 20.9125 109.84 21.4635 109.962 22.0513C110.085 22.639 110.305 23.2146 110.623 23.7778C110.967 24.3166 111.383 24.8064 111.873 25.2472C112.362 25.6635 112.926 25.9941 113.562 26.239C114.199 26.4839 114.885 26.6064 115.62 26.6064C116.428 26.6064 117.162 26.4472 117.824 26.1289C118.51 25.786 119.097 25.3696 119.587 24.8799C120.077 24.4145 120.493 23.8513 120.836 23.19C121.179 22.5043 121.338 21.7206 121.313 20.8391C121.313 20.0309 121.142 19.2839 120.799 18.5982C120.481 17.888 120.113 17.3248 119.697 16.9084C119.207 16.3696 118.558 15.9166 117.75 15.5492C116.942 15.1819 116.06 15.0595 115.105 15.1819C113.685 15.3533 112.558 15.8431 111.726 16.6513ZM126.194 3.09619H129.501V12.0594C129.501 13.6023 129.476 15.1451 129.427 16.688C129.378 18.2064 129.402 19.639 129.501 20.986C129.623 22.7002 130.21 24.0595 131.264 25.0635C132.317 26.0431 133.713 26.5941 135.452 26.7166V29.986C134.055 30.0594 132.831 29.888 131.778 29.4717C130.749 29.0554 129.868 28.4921 129.133 27.7819C128.423 27.1452 127.774 26.3492 127.186 25.3941C126.598 24.4145 126.255 23.337 126.158 22.1615C126.084 21.4023 126.06 20.6309 126.084 19.8472C126.133 19.039 126.158 18.2309 126.158 17.4227V3.24311C126.158 3.14517 126.17 3.09619 126.194 3.09619Z" fill="#3CD583"/>
<path d="M85.389 38.3325H80.2515V37.5379L82.2866 35.4807C82.6785 35.0889 83.0085 34.7406 83.2772 34.4358C83.5459 34.1311 83.7489 33.8336 83.887 33.5433C84.0245 33.2458 84.0938 32.9229 84.0938 32.5746C84.0938 32.1465 83.9663 31.8236 83.7125 31.6059C83.4586 31.381 83.1286 31.2685 82.7219 31.2685C82.3448 31.2685 82.011 31.3338 81.7207 31.4644C81.4377 31.595 81.1474 31.7764 80.8502 32.0086L80.3382 31.3665C80.5418 31.1923 80.7629 31.0363 81.0025 30.8984C81.2489 30.7605 81.5139 30.6517 81.7969 30.5719C82.0872 30.4921 82.3955 30.4521 82.7219 30.4521C83.2084 30.4521 83.6257 30.5356 83.9737 30.7025C84.3223 30.8694 84.5904 31.1089 84.7792 31.4209C84.9754 31.7256 85.0733 32.0921 85.0733 32.5202C85.0733 32.825 85.0262 33.1152 84.9315 33.3909C84.8374 33.6594 84.703 33.9243 84.529 34.1855C84.3545 34.4467 84.1445 34.7116 83.8976 34.98C83.6511 35.2486 83.3787 35.5279 83.0815 35.8182L81.4594 37.4181V37.4617H85.389V38.3325Z" fill="#9C9C9C"/>
<defs>
<linearGradient id="paint0_linear_2010_782" x1="33.0069" y1="10.8299" x2="15.8921" y2="35.8747" gradientUnits="userSpaceOnUse">
<stop offset="0.194889" stop-color="#4492EC"/>
<stop offset="0.477218" stop-color="#2B96AE"/>
<stop offset="0.726984" stop-color="#40E479"/>
</linearGradient>
<linearGradient id="paint1_linear_2010_782" x1="33.0072" y1="10.8298" x2="15.8924" y2="35.8745" gradientUnits="userSpaceOnUse">
<stop offset="0.194889" stop-color="#4492EC"/>
<stop offset="0.477218" stop-color="#2B96AE"/>
<stop offset="0.726984" stop-color="#40E479"/>
</linearGradient>
<linearGradient id="paint2_linear_2010_782" x1="33.0069" y1="10.8298" x2="15.8922" y2="35.8745" gradientUnits="userSpaceOnUse">
<stop offset="0.194889" stop-color="#4492EC"/>
<stop offset="0.477218" stop-color="#2B96AE"/>
<stop offset="0.726984" stop-color="#40E479"/>
</linearGradient>
<linearGradient id="paint3_linear_2010_782" x1="33.0071" y1="10.8299" x2="15.8923" y2="35.8746" gradientUnits="userSpaceOnUse">
<stop offset="0.194889" stop-color="#4492EC"/>
<stop offset="0.477218" stop-color="#2B96AE"/>
<stop offset="0.726984" stop-color="#40E479"/>
</linearGradient>
</defs>
</svg>
